<svg height="512" viewBox="0 0 128 128" width="512" xmlns="http://www.w3.org/2000/svg"><path d="m107.387 55.542h-11.753a13.972 13.972 0 0 0 -1.534-12.159 5.281 5.281 0 0 0 -7.413-5.6 13.845 13.845 0 0 0 -6.6-.425 17.622 17.622 0 0 0 -1.123-1.95 6.29 6.29 0 0 0 -8.964-6.764 17.307 17.307 0 0 0 -10.458-.116 4.911 4.911 0 0 0 -1.159-.684 4.986 4.986 0 0 0 -6.783 5.747 17.245 17.245 0 0 0 -2.464 3.619c-.059 0-.117-.009-.176-.009a17.13 17.13 0 0 0 -6.679 1.348 4.791 4.791 0 0 0 -7.281 4.104 4.722 4.722 0 0 0 .2 1.347 17.331 17.331 0 0 0 -3.612 10.58c0 .322.024.644.042.966h-11.016a1.749 1.749 0 0 0 -1.75 1.75v15.604a17.339 17.339 0 0 0 15.719 17.238v3.371a7.041 7.041 0 0 0 7.033 7.033h44.768a7.041 7.041 0 0 0 7.033-7.033v-3.371a17.34 17.34 0 0 0 15.72-17.238v-15.6a1.749 1.749 0 0 0 -1.75-1.758zm-21.157-14.209a1.747 1.747 0 0 0 1.624-.2 1.782 1.782 0 0 1 2.71 2.046 1.756 1.756 0 0 0 .256 1.621 10.45 10.45 0 0 1 1.3 10.235c-.074.178-.174.338-.258.511h-18.718a10.39 10.39 0 0 1 2.056-11.922 1.75 1.75 0 0 0 .311-2.082.768.768 0 0 1 -.045-.668.777.777 0 0 1 1.015-.42.764.764 0 0 1 .322.263 1.75 1.75 0 0 0 2.027.6 10.376 10.376 0 0 1 7.4.016zm-31.382-6.079a1.751 1.751 0 0 0 .31-2.083 1.485 1.485 0 0 1 2.5-1.6 1.754 1.754 0 0 0 2.029.6 13.848 13.848 0 0 1 9.865.024 1.745 1.745 0 0 0 1.624-.2 2.792 2.792 0 0 1 4.242 3.2 1.749 1.749 0 0 0 .256 1.612c.029.039.05.082.079.121a4.239 4.239 0 0 0 -3.768 5 13.875 13.875 0 0 0 -2.608 13.6h-3.077c.018-.322.042-.643.042-.966a17.394 17.394 0 0 0 -13.435-16.892 13.747 13.747 0 0 1 1.941-2.416zm-19.761 19.322a13.85 13.85 0 0 1 3.458-9.141 1.75 1.75 0 0 0 .165-2.091 1.273 1.273 0 0 1 -.206-.691 1.3 1.3 0 0 1 1.3-1.3 1.287 1.287 0 0 1 .947.422 1.748 1.748 0 0 0 2.062.378 13.727 13.727 0 0 1 6.149-1.453 13.891 13.891 0 0 1 13.875 13.876c0 .323-.02.645-.042.966h-27.666c-.022-.321-.042-.642-.042-.966zm-1.521 4.466h59.334.022s.015 0 .023 0h12.688v2.258h-83.269v-2.258zm58.254 27.669h-.153a1.749 1.749 0 0 0 -1.75 1.75v5.048a3.537 3.537 0 0 1 -3.533 3.533h-44.768a3.537 3.537 0 0 1 -3.533-3.533v-3.3h42.917a1.75 1.75 0 0 0 0-3.5h-44.82a13.831 13.831 0 0 1 -13.816-13.809v-8.1h83.273v8.1a13.832 13.832 0 0 1 -13.817 13.811z"/></svg>