<?xml version="1.0" encoding="iso-8859-1"?>
<!-- Generator: Adobe Illustrator 19.0.0, SVG Export Plug-In . SVG Version: 6.00 Build 0)  -->
<svg version="1.1" id="Capa_1" xmlns="http://www.w3.org/2000/svg" xmlns:xlink="http://www.w3.org/1999/xlink" x="0px" y="0px"
	 viewBox="0 0 512 512" style="enable-background:new 0 0 512 512;" xml:space="preserve">
<g>
	<g>
		<path d="M502.154,324.924h-5.304c-6.454-7.115-22.598-22.757-51.601-38.226C410.57,268.203,349.587,246.156,256,246.156
			s-154.57,22.047-189.249,40.543c-29.003,15.468-45.147,31.111-51.601,38.226H9.846c-5.437,0-9.846,4.408-9.846,9.846v16.411
			c0,5.553,0.873,10.906,2.478,15.934c0.05,0.167,0.109,0.33,0.167,0.494c6.585,19.936,24.803,34.621,46.585,35.972v29.652
			c0,5.438,4.409,9.846,9.846,9.846h393.846c5.437,0,9.846-4.408,9.846-9.846v-29.652c27.431-1.701,49.231-24.547,49.231-52.4
			V334.77C512,329.332,507.591,324.924,502.154,324.924z M256,265.848c88.647,0,146.092,20.41,178.673,37.534
			c14.415,7.576,25.358,15.188,33.259,21.543H44.037C71.368,302.971,135.42,265.848,256,265.848z M443.077,423.386H68.923v-19.692
			h374.154V423.386z M492.308,351.181c0,18.097-14.723,32.82-32.82,32.82h-6.564H59.077h-6.564c-9.159,0-17.449-3.775-23.408-9.846
			h29.973c5.437,0,9.846-4.408,9.846-9.846c0-5.438-4.409-9.846-9.846-9.846h-39.22c-0.107-1.08-0.164-2.174-0.164-3.282v-6.564
			h472.615V351.181z"/>
	</g>
</g>
<g>
	<g>
		<path d="M169.652,298.834l-9.518-10.174c-3.715-3.972-9.946-4.179-13.918-0.464c-3.971,3.715-4.178,9.946-0.464,13.917
			l9.518,10.174c1.939,2.073,4.563,3.119,7.193,3.119c2.41,0,4.826-0.879,6.725-2.656
			C173.159,309.036,173.366,302.805,169.652,298.834z"/>
	</g>
</g>
<g>
	<g>
		<path d="M219.219,279.478c-3.712-3.976-9.941-4.19-13.917-0.48l-9.846,9.189c-3.975,3.711-4.19,9.941-0.479,13.917
			c1.94,2.078,4.567,3.128,7.201,3.128c2.406,0,4.819-0.877,6.716-2.648l9.846-9.189
			C222.714,289.684,222.93,283.454,219.219,279.478z"/>
	</g>
</g>
<g>
	<g>
		<path d="M268.114,298.834l-9.518-10.174c-3.715-3.972-9.947-4.179-13.918-0.464c-3.971,3.715-4.178,9.946-0.464,13.917
			l9.518,10.174c1.939,2.073,4.563,3.119,7.193,3.119c2.41,0,4.826-0.879,6.725-2.656
			C271.621,309.036,271.828,302.805,268.114,298.834z"/>
	</g>
</g>
<g>
	<g>
		<path d="M317.444,279.234c-3.846-3.846-10.081-3.845-13.924,0l-9.189,9.189c-3.845,3.845-3.845,10.079,0,13.924
			c1.923,1.923,4.443,2.884,6.962,2.884s5.04-0.962,6.962-2.884l9.189-9.189C321.289,289.314,321.289,283.079,317.444,279.234z"/>
	</g>
</g>
<g>
	<g>
		<path d="M366.138,303.48l-9.189-9.518c-3.776-3.912-10.009-4.02-13.922-0.244c-3.912,3.777-4.021,10.011-0.243,13.922l9.19,9.518
			c1.932,2.001,4.506,3.007,7.083,3.007c2.463,0,4.927-0.918,6.838-2.763C369.807,313.626,369.916,307.392,366.138,303.48z"/>
	</g>
</g>
<g>
	<g>
		<path d="M98.273,362.389c-0.127-0.63-0.325-1.25-0.571-1.851c-0.246-0.591-0.551-1.162-0.906-1.694
			c-0.354-0.542-0.767-1.044-1.221-1.497c-0.453-0.453-0.955-0.867-1.497-1.221c-0.532-0.354-1.103-0.66-1.703-0.906
			c-0.591-0.246-1.21-0.433-1.84-0.561c-1.27-0.256-2.57-0.256-3.84,0c-0.63,0.128-1.25,0.315-1.841,0.561
			c-0.601,0.246-1.171,0.551-1.702,0.906c-0.543,0.354-1.045,0.768-1.498,1.221c-0.453,0.453-0.866,0.955-1.221,1.497
			c-0.364,0.532-0.66,1.103-0.906,1.694c-0.246,0.601-0.443,1.221-0.571,1.851s-0.186,1.28-0.186,1.92
			c0,2.59,1.053,5.13,2.885,6.961c0.452,0.453,0.953,0.866,1.496,1.221c0.532,0.354,1.102,0.66,1.702,0.906
			c0.592,0.246,1.211,0.443,1.841,0.561c0.63,0.128,1.28,0.197,1.92,0.197c0.639,0,1.29-0.069,1.92-0.197
			c0.63-0.118,1.25-0.315,1.84-0.561c0.601-0.246,1.172-0.551,1.703-0.906c0.542-0.354,1.044-0.768,1.497-1.221
			c1.831-1.831,2.886-4.372,2.886-6.961C98.461,363.669,98.401,363.019,98.273,362.389z"/>
	</g>
</g>
<g>
	<g>
		<path d="M177.182,182.892l-2.724-2.746c-1.593-1.606-1.593-4.22,0-5.826c9.175-9.251,9.175-24.307,0.001-33.558l-2.724-2.747
			c-1.247-1.256-1.555-3.166-0.769-4.752l5.322-10.734c2.415-4.872,0.425-10.78-4.448-13.195c-4.873-2.415-10.78-0.423-13.195,4.448
			l-5.322,10.733c-4.528,9.13-2.748,20.128,4.428,27.364l2.724,2.747c1.593,1.606,1.593,4.22,0,5.826
			c-9.175,9.251-9.175,24.307,0,33.559l2.724,2.746c1.247,1.256,1.555,3.167,0.769,4.751l-5.323,10.734
			c-2.415,4.872-0.425,10.78,4.448,13.196c1.406,0.697,2.897,1.027,4.367,1.027c3.623,0,7.11-2.009,8.829-5.474l5.324-10.735
			C186.139,201.125,184.358,190.129,177.182,182.892z"/>
	</g>
</g>
<g>
	<g>
		<path d="M354.25,182.893l-2.724-2.748c-1.593-1.606-1.593-4.22,0-5.826c9.175-9.251,9.175-24.307,0-33.559l-2.724-2.746
			c-1.246-1.256-1.555-3.167-0.769-4.751l5.323-10.734c2.415-4.872,0.425-10.78-4.448-13.196
			c-4.874-2.416-10.779-0.425-13.195,4.447l-5.324,10.735c-4.526,9.131-2.746,20.128,4.43,27.364l2.724,2.748
			c1.593,1.606,1.593,4.22,0,5.826c-9.175,9.251-9.175,24.307-0.001,33.558l2.724,2.747c1.246,1.256,1.555,3.166,0.769,4.752
			l-5.322,10.734c-2.415,4.872-0.425,10.78,4.448,13.195c1.406,0.697,2.897,1.027,4.367,1.027c3.624,0,7.111-2.009,8.829-5.475
			l5.322-10.733C363.206,201.127,361.426,190.129,354.25,182.893z"/>
	</g>
</g>
<g>
	<g>
		<path d="M265.881,182.893l-2.724-2.748c-1.593-1.606-1.593-4.22,0-5.826c9.175-9.251,9.175-24.307,0-33.559
			c-1.593-1.606-1.593-4.22,0-5.826c9.175-9.251,9.175-24.307,0-33.559l-2.724-2.746c-1.246-1.256-1.555-3.167-0.769-4.751
			l5.323-10.734c2.415-4.872,0.425-10.78-4.448-13.196s-10.779-0.425-13.195,4.447l-5.324,10.735
			c-4.526,9.131-2.746,20.128,4.43,27.364l2.723,2.748c1.593,1.606,1.593,4.22,0,5.826c-9.175,9.251-9.175,24.307,0,33.559
			c1.593,1.606,1.593,4.22,0,5.826c-9.175,9.251-9.175,24.307-0.001,33.558l2.724,2.747c1.247,1.256,1.555,3.166,0.769,4.752
			l-5.322,10.734c-2.415,4.872-0.424,10.78,4.448,13.195c1.406,0.697,2.897,1.027,4.367,1.027c3.623,0,7.111-2.009,8.829-5.475
			l5.322-10.733C274.837,201.127,273.056,190.129,265.881,182.893z"/>
	</g>
</g>
<g>
</g>
<g>
</g>
<g>
</g>
<g>
</g>
<g>
</g>
<g>
</g>
<g>
</g>
<g>
</g>
<g>
</g>
<g>
</g>
<g>
</g>
<g>
</g>
<g>
</g>
<g>
</g>
<g>
</g>
</svg>
